<?xml version="1.0" standalone="no"?>
<!DOCTYPE svg PUBLIC "-//W3C//DTD SVG 1.1//EN" "http://www.w3.org/Graphics/SVG/1.1/DTD/svg11.dtd" >
<svg xmlns="http://www.w3.org/2000/svg">
<metadata>Generated by IcoMoon</metadata>
<defs>
<font id="icomoon" horiz-adv-x="512">
<font-face units-per-em="512" ascent="480" descent="-32" />
<missing-glyph horiz-adv-x="512" />
<glyph unicode="&#x20;" d="" horiz-adv-x="256" />
<glyph unicode="&#xe000;" d="M438.857 96v-36.572q0-7.428-5.428-12.857t-12.857-5.428h-402.286q-7.428 0-12.857 5.428t-5.428 12.857v36.572q0 7.428 5.428 12.857t12.857 5.428h402.286q7.428 0 12.857-5.428t5.428-12.857zM438.857 242.286v-36.572q0-7.428-5.428-12.857t-12.857-5.428h-402.286q-7.428 0-12.857 5.428t-5.428 12.857v36.572q0 7.428 5.428 12.857t12.857 5.429h402.286q7.428 0 12.857-5.428t5.428-12.857zM438.857 388.572v-36.572q0-7.428-5.428-12.857t-12.857-5.429h-402.286q-7.428 0-12.857 5.428t-5.428 12.857v36.571q0 7.429 5.428 12.857t12.857 5.428h402.286q7.428 0 12.857-5.428t5.428-12.857z" horiz-adv-x="439" />
<glyph unicode="&#xe001;" d="M292.572 278.857q0-7.428-5.428-12.857l-128-128q-5.428-5.428-12.857-5.428t-12.857 5.428l-128 128q-5.428 5.428-5.428 12.857t5.428 12.857 12.857 5.428h256q7.428 0 12.857-5.428t5.428-12.857z" horiz-adv-x="293" />
<glyph unicode="&#xe002;" d="M329.143 242.286q0 52.857-37.572 90.428t-90.428 37.572-90.428-37.572-37.572-90.428 37.572-90.428 90.428-37.572 90.428 37.572 37.572 90.428zM475.428 4.572q0-14.857-10.857-25.714t-25.714-10.857q-15.428 0-25.714 10.857l-98 97.714q-51.143-35.428-114-35.428-40.857 0-78.143 15.857t-64.285 42.857-42.857 64.286-15.857 78.143 15.857 78.143 42.857 64.286 64.285 42.857 78.143 15.857 78.143-15.857 64.286-42.857 42.857-64.286 15.857-78.143q0-62.857-35.428-114l98-98q10.572-10.572 10.572-25.714z" horiz-adv-x="476" />
<glyph unicode="&#xe003;" d="M462.857 363.428q-19.143-28-46.286-47.714 0.286-4 0.286-12t-10.857-74.143-33-71-52.714-60.143-73.714-41.714-92.286-15.572q-77.428 0-141.714 41.428 10-1.143 22.285-1.143 64.285 0 114.572 39.428-30 0.572-53.715 18.428t-32.572 45.572q9.428-1.428 17.428-1.428 12.285 0 24.285 3.143-32 6.572-53 31.857t-21 58.714v1.143q19.428-10.857 41.715-11.714-18.857 12.571-30 32.857t-11.143 44 12.572 46.572q34.572-42.572 84.143-68.143t106.143-28.428q-2.286 10.857-2.286 21.143t27 65.285 65.286 27q40 0 67.428-29.143 31.143 6 58.572 22.286-10.572-32.857-40.572-50.857 26.572 2.857 53.143 14.286z" horiz-adv-x="476" />
<glyph unicode="&#xe004;" d="M146 321.143h73.428l-8.572-81.143h-64.857v-235.428h-97.428v235.429h-48.572v81.143h48.572v48.857q0 52 24.572 78.715t80.857 26.714h64.857v-81.143h-40.572q-11.143 0-17.857-1.857t-9.714-6.714-3.857-9.857-0.857-14.143v-40.572z" horiz-adv-x="220" />
<glyph unicode="&#xe005;" d="M99.715 301.428v-283.143h-94.285v283.143h94.285zM105.715 388.857q0.285-20.857-14.428-34.857t-38.715-14h-0.572q-23.428 0-37.715 14t-14.286 34.857q0 21.143 14.714 35t38.428 13.857 38-13.857 14.572-35zM438.857 180.572v-162.286h-94v151.429q0 30-11.572 47t-36.143 17q-18 0-30.143-9.857t-18.143-24.428q-3.143-8.572-3.143-23.143v-158h-94q0.571 114 0.571 184.857t-0.286 84.572l-0.286 13.714h94v-41.143h-0.571q5.714 9.143 11.714 16t16.143 14.857 24.857 12.428 32.714 4.428q48.857 0 78.572-32.428t29.714-95z" horiz-adv-x="439" />
<glyph unicode="&#xe006;" d="M109.715 96q0-22.857-16-38.857t-38.857-16-38.857 16-16 38.857 16 38.857 38.857 16 38.857-16 16-38.857zM256 60.857q0.572-8-4.857-13.714-5.143-6-13.429-6h-38.572q-7.143 0-12.286 4.714t-5.714 11.857q-6.286 65.428-52.714 111.857t-111.857 52.714q-7.143 0.572-11.857 5.714t-4.715 12.286v38.572q0 8.286 6 13.428 4.857 4.857 12.286 4.857h1.428q45.715-3.715 87.428-23t74-51.857q32.572-32.286 51.857-74t23-87.428zM402.286 60.286q0.572-7.714-5.143-13.428-5.143-5.714-13.143-5.714h-40.857q-7.428 0-12.714 5t-5.572 12.143q-3.428 61.428-28.857 116.714t-66.143 96-96 66.143-116.715 29.143q-7.143 0.286-12.143 5.572t-5 12.428v40.857q0 8 5.715 13.143 5.143 5.143 12.572 5.143h0.857q74.857-3.715 143.286-34.286t121.572-84q53.428-53.143 84-121.572t34.286-143.286z" horiz-adv-x="403" />
<glyph unicode="&#xe007;" d="M279.533 448c0 0-100.478 0-133.97 0-60.060 0-116.585-45.503-116.585-98.211 0-53.863 40.941-97.333 102.044-97.333 4.249 0 8.378 0.085 12.421 0.376-3.965-7.593-6.801-16.144-6.801-25.021 0-14.969 8.052-27.105 18.234-37.012-7.693 0-15.121-0.224-23.226-0.224-74.391 0.001-131.65-47.379-131.65-96.51 0-48.389 62.771-78.657 137.167-78.657 84.812 0 131.653 48.122 131.653 96.514 0 38.8-11.448 62.036-46.843 87.067-12.108 8.572-35.265 29.418-35.265 41.672 0 14.36 4.098 21.434 25.714 38.323 22.156 17.312 37.836 41.651 37.836 69.958 0 33.703-15.010 66.549-43.186 77.386h42.477l29.98 21.672zM232.74 120.271c1.063-4.486 1.642-9.103 1.642-13.814 0-39.1-25.196-69.655-97.487-69.655-51.421 0-88.558 32.552-88.558 71.65 0 38.321 46.063 70.222 97.482 69.666 12-0.127 23.184-2.058 33.335-5.345 27.913-19.413 47.938-30.381 53.586-52.502zM150.409 266.112c-34.519 1.032-67.318 38.613-73.276 83.93-5.958 45.333 17.185 80.021 51.694 78.995 34.505-1.037 67.319-37.407 73.279-82.729 5.953-45.33-17.195-81.229-51.697-80.196zM416 352v96h-32v-96h-96v-32h96v-96h32v96h96v32z" />
<glyph unicode="&#xe008;" d="M310.627 41.373l160 160c12.497 12.496 12.497 32.758 0 45.255l-160 160c-12.497 12.496-32.758 12.496-45.255 0-12.497-12.497-12.497-32.758 0-45.255l105.373-105.373h-306.745c-17.673 0-32-14.327-32-32s14.327-32 32-32h306.745l-105.373-105.373c-6.248-6.248-9.372-14.438-9.372-22.627s3.124-16.379 9.372-22.627c12.497-12.497 32.758-12.497 45.255 0z" />
<glyph unicode="&#xe009;" d="M148.793 106.413h163.040v-18.813h-163.040v18.813zM148.793 144.073h163.040v-18.813h-163.040v18.813zM148.793 181.733h163.040v-18.806h-163.040v18.807zM473.84 287.92c8.473 17.194 12.92 36.46 12.92 55.707h-28.427c0 8.040-1.080 15.82-2.913 23.307l27.74 6.78c-4.56 18.62-13.48 36.253-25.827 51.007l-21.853-18.293c-7.166 8.52-15.774 15.767-25.413 21.46l14.52 24.62c-16.547 9.767-35.447 15.694-54.62 17.12l-2.14-28.447c-2.454 0.167-4.88 0.367-7.38 0.367-8.92 0-17.5-1.293-25.7-3.534l-7.507 27.56c-18.486-5.034-35.9-14.406-50.32-27.113l18.906-21.46c-8.36-7.36-15.48-16.060-20.94-25.853l-24.92 13.853c-5.913-10.667-10.073-22.267-12.707-34.206h-154.974v-367.32h296.747v244.133c4.033 0.786 8.007 1.767 11.853 3.026l8.873-27.093c18.22 5.974 35.12 16.213 48.887 29.62l-19.94 20.447c7.96 7.746 14.533 16.853 19.5 26.913l25.633-12.6zM115.207 36.407v301.474h147.534c0.454-7.707 1.793-15.187 3.92-22.32l-27.293-8.166c5.494-18.36 15.3-35.526 28.38-49.626l20.974 19.433c7.573-8.147 16.453-15.047 26.394-20.274l-13.22-25.267c13.707-7.167 28.82-11.627 44.226-13.393v-181.86h-230.913zM360.507 300.82c-23.56 0-42.68 19.093-42.68 42.666 0 23.567 19.12 42.666 42.68 42.666s42.654-19.1 42.654-42.666c0.007-23.573-19.087-42.666-42.654-42.666zM240.993 257.060h-92.2v-18.806h108.28c-5.893 5.773-11.226 12.113-16.080 18.806zM280.753 219.394h-131.96v-18.807h163.040v3.673c-11.007 3.846-21.42 8.92-31.080 15.133z" horiz-adv-x="544" />
<glyph unicode="&#xe00a;" d="M356.103 56.967c-3.798 0-7.559 1.216-10.724 3.577l-90.51 67.925h-132.679c-38.186 0-69.276 31.069-69.276 69.269v125.682c0 38.208 31.090 69.284 69.276 69.284h268.117c38.201 0 69.276-31.075 69.276-69.284v-125.689c0-38.201-31.075-69.269-69.276-69.269h-19.947l3.555-52.438c0.462-6.962-3.171-13.568-9.294-16.882-2.681-1.465-5.611-2.176-8.519-2.176zM122.19 356.999c-18.517 0-33.572-15.062-33.572-33.579v-125.689c0-18.517 15.054-33.565 33.572-33.565h138.66c3.861 0 7.623-1.252 10.709-3.577l64.099-48.121-2.197 32.647c-0.341 4.906 1.394 9.757 4.779 13.39 3.37 3.598 8.099 5.661 13.027 5.661h39.040c18.517 0 33.572 15.047 33.572 33.565v125.689c0 18.518-15.054 33.579-33.572 33.579h-268.118zM132.458 253.383h247.566v-28.566h-247.566v28.565zM132.458 310.585h247.566v-28.58h-247.566v28.58z" />
<glyph unicode="&#xe00b;" d="M384.349 363.406v-26.041h-31.353v26.041h-196.181v-26.041h-31.353v26.041h-24.605v-282.397h24.605v17.28h31.353v-17.28h196.181v17.28h31.353v-17.28h27.428v282.397h-27.428zM156.814 117.888h-31.353v35.271h31.353v-35.271zM156.814 172.757h-31.353v35.278h31.353v-35.278zM156.814 227.626h-31.353v35.278h31.353v-35.278zM156.814 282.503h-31.353v35.271h31.353v-35.271zM325.554 117.817h-138.475v201.209h138.482v-201.209zM384.349 117.888h-31.353v35.271h31.353v-35.271zM384.349 172.757h-31.353v35.278h31.353v-35.278zM384.349 227.626h-31.353v35.278h31.353v-35.278zM384.349 282.503h-31.353v35.271h31.353v-35.271z" />
<glyph unicode="&#xe00c;" d="M132.807 76.010l-2.46-1.813h2.46zM401.579 19.662h-297.955v401.33h297.955v-401.33zM133.725 49.757h237.753v341.142h-237.753v-341.142zM165.639 160.306h173.909v-20.067h-173.91v20.067zM165.639 200.469h173.909v-20.060h-173.91v20.060zM258.517 336.711l-0.562-27.634h-92.317v-51.456h93.859l0.099-27.193 78.919 53.781z" />
<glyph unicode="&#xe00d;" d="M440.995 391.851c-14.229 10.297-34.197 7.168-44.587-7.104l-112.334-154.638-29.938 68.288c-7.083 16.114-25.87 23.481-42.026 16.356-16.156-7.083-23.51-25.913-16.427-42.019l52.764-120.256c4.217-9.6 12.594-16.071 22.094-18.283 6.45-1.479 13.433-0.981 19.997 1.899 8.043 3.541 13.93 10.026 16.882 17.65 0.099 0.086 0.171 0.135 0.192 0.214l140.445 193.315c10.375 14.236 7.204 34.212-7.062 44.579zM277.724 105.593c-4.48 0-8.995 0.49-13.369 1.514-2.766 0.633-5.44 1.529-8.057 2.538v-34.901h-168.285v168.292h90.34l-8.128 18.518c-2.88 6.564-4.345 13.462-4.764 20.402h-116.374v-246.115h246.123v72.704c-5.696-1.757-11.513-2.951-17.486-2.951z" />
<glyph unicode="&#xe00e;" d="M204.708 186.176c-62.947-16.604-115.058-63.495-136.924-127.090-1.28-3.733-0.675-7.844 1.614-11.079 2.311-3.221 6.009-5.134 9.948-5.134h150.883l-25.522 143.303zM442.61 59.086c-22.194 64.519-75.456 111.914-139.648 127.865l-25.635-144.078h153.692c3.954 0 7.673 1.913 9.977 5.134 2.29 3.236 2.916 7.339 1.614 11.079zM273.45 136.512h-36.501l-3.925 31.481h44.345zM348.238 307.107c0-51.548-41.785-93.362-93.319-93.362-51.548 0-93.312 41.814-93.312 93.362 0 51.542 41.763 93.362 93.312 93.362 51.534-0.007 93.319-41.82 93.319-93.362z" />
<glyph unicode="&#xe00f;" d="M105.529 420.992v-401.337h297.955v401.337h-297.955zM373.383 269.298h-27.349l-0.022-55.19h-30.094l-0.029-46.243h-30.094l-0.022-34.019h-30.101l-0.022 35.115h-30.094l-0.029 40.135h-30.115l-0.014-60.202h-30.101l-0.007-47.901h-29.661v289.906h237.753v-121.6z" />
<glyph unicode="&#xe010;" d="M163.257 159.332h173.91v-20.067h-173.91v20.067zM557.155 190.108l-92.878 66.332c8.099 17.123 12.63 36.245 12.63 56.42 0 73.315-59.641 132.942-132.935 132.942-47.317 0-88.825-24.918-112.406-62.265h-129.65v-356.679h297.622v165.39c19.164 8.868 35.854 22.194 48.796 38.578l91.321-65.216c2.653-1.892 5.703-2.802 8.74-2.802 4.693 0 9.322 2.197 12.26 6.3 4.828 6.77 3.257 16.171-3.499 20.999zM369.437 56.96h-237.426v296.483h85.404c-4.118-12.8-6.386-26.425-6.386-40.583 0-11.406 1.529-22.436 4.252-33.003h-52.018v-20.067h58.958c3.101-7.033 6.706-13.781 10.916-20.103h-69.881v-20.075h86.265c7.594-7.666 16.093-14.442 25.337-20.103h-111.602v-20.067h173.91v0.825c2.262-0.121 4.509-0.349 6.805-0.349 8.711 0 17.209 0.903 25.465 2.51v-125.469zM343.971 210.019c-56.718 0-102.848 46.123-102.848 102.841 0 56.711 46.13 102.841 102.848 102.841 56.711 0 102.841-46.13 102.841-102.841 0-16.853-4.153-32.74-11.378-46.798-1.764-1.038-3.363-2.432-4.637-4.202-1.75-2.453-2.631-5.241-2.759-8.042-18.631-26.446-49.337-43.797-84.067-43.797z" horiz-adv-x="576" />
<glyph unicode="&#xe011;" d="M133.39 76.010l-2.468-1.813h2.468zM402.162 19.662h-297.97v401.33h297.962v-401.33zM134.293 49.757h237.76v341.142h-237.76v-341.142zM166.215 341.084h173.917v-20.067h-173.917v20.067zM199.879 197.127l27.634-0.548v-92.317h51.456v93.846l27.186 0.099-53.774 78.94z" />
<glyph unicode="&#xe012;" d="M150.377 186.459c-63.731-17.072-116.491-65.28-138.629-130.665-1.286-3.834-0.69-8.058 1.634-11.385 2.33-3.319 6.084-5.273 10.085-5.273h152.762l-25.846 147.327zM391.286 55.792c-22.472 66.336-76.418 115.061-141.403 131.455l-25.963-148.119h155.62c3.994 0 7.767 1.959 10.094 5.273 2.329 3.327 2.945 7.553 1.654 11.387zM219.982 135.404h-36.939l-3.986 32.367h44.911zM295.709 310.784c0-53-42.298-95.983-94.484-95.983-52.193 0-94.475 42.976-94.475 95.983 0 52.993 42.282 95.983 94.475 95.983 52.19-0.001 94.484-42.99 94.484-95.983zM498.075 387.8c9.825 0 17.827-7.999 17.827-17.827v-66.749c0-9.834-7.999-17.816-17.827-17.816h-73.631c-2.055 0-4.053-0.671-5.689-1.903l-34.045-25.552 1.167 17.334c0.185 2.611-0.739 5.187-2.531 7.107-1.793 1.914-4.305 3.015-6.925 3.015h-20.733c-9.834 0-17.827 7.982-17.827 17.817v66.749c0 9.825 7.994 17.827 17.827 17.827h142.385zM373.861 228.466c2.015 0 4.011 0.647 5.689 1.893l48.063 36.078h70.464c20.282 0 36.786 16.494 36.786 36.782v66.749c0 20.288-16.509 36.786-36.786 36.786h-142.39c-20.282 0-36.786-16.499-36.786-36.786v-66.749c0-20.288 16.509-36.782 36.786-36.782h10.589l-1.885-27.851c-0.247-3.689 1.682-7.205 4.936-8.966 1.422-0.77 2.976-1.157 4.528-1.157zM361.154 332.78h131.47v-15.167h-131.47v15.167zM361.154 363.145h131.47v-15.167h-131.47v15.168z" horiz-adv-x="615" />
<glyph unicode="&#xe013;" d="M291.149 282.886h-48.202c-3.571-10.419-9.226-19.934-16.958-28.566l20.976-37.037c1.778-3.28 2.154-6.774 1.118-10.493-1.048-3.721-3.049-6.625-6.024-8.701l-23.653-13.834c-3.28-1.777-6.697-2.165-10.267-1.118-3.571 1.036-6.253 3.197-8.035 6.473l-21.419 37.484c-5.654-0.893-11.016-1.333-16.063-1.333-5.064 0-10.419 0.441-16.063 1.333l-21.419-37.484c-1.793-3.28-4.463-5.431-8.035-6.473-3.572-1.048-6.992-0.671-10.266 1.118l-23.653 13.834c-2.974 2.079-4.983 4.975-6.023 8.701-1.047 3.716-0.671 7.21 1.123 10.493l20.973 37.037c-7.745 8.629-13.39 18.143-16.957 28.566h-48.206c-3.874 0-7.222 1.333-10.038 4.021-2.831 2.678-4.245 6.102-4.245 10.266v28.566c0 3.863 1.41 7.21 4.245 10.038 2.817 2.826 6.166 4.241 10.038 4.241h48.201c3.572 10.113 9.222 19.635 16.957 28.566l-20.973 37.043c-1.793 3.265-2.165 6.764-1.123 10.493 1.047 3.712 3.049 6.473 6.023 8.26l23.653 13.834c3.266 2.079 6.697 2.603 10.267 1.558 3.572-1.048 6.247-3.203 8.035-6.474l21.419-37.942c5.951 1.191 11.297 1.777 16.063 1.777 4.754 0 10.113-0.599 16.063-1.777l21.419 37.942c1.778 3.265 4.464 5.425 8.035 6.474 3.571 1.035 6.983 0.519 10.267-1.558l23.653-13.834c2.97-1.793 4.975-4.545 6.024-8.26 1.047-3.729 0.672-7.216-1.118-10.493l-20.976-37.043c7.738-8.925 13.39-18.459 16.958-28.566h48.201c3.863 0 7.21-1.416 10.038-4.241 2.825-2.831 4.241-6.178 4.241-10.038v-28.566c0-4.166-1.416-7.582-4.241-10.266-2.827-2.68-6.176-4.021-10.036-4.021zM182.918 331.527c-5.504 5.647-12.273 8.474-20.303 8.474s-14.805-2.827-20.307-8.474c-5.506-5.651-8.26-12.421-8.26-20.307 0-7.882 2.746-14.578 8.26-20.081 5.504-5.504 12.275-8.255 20.307-8.255s14.798 2.746 20.303 8.255c5.504 5.504 8.26 12.202 8.26 20.081 0 7.881-2.757 14.654-8.26 20.307zM462.529 111.502h-48.202c-3.572-10.42-9.226-19.935-16.957-28.566l20.976-37.037c1.777-3.572 2.154-7.144 1.118-10.714-1.048-3.572-3.049-6.399-6.024-8.481l-23.653-13.834c-3.28-1.777-6.697-2.229-10.267-1.333s-6.253 3.125-8.035 6.697l-21.419 37.485c-5.954-1.192-11.31-1.777-16.063-1.777-4.764 0-10.12 0.591-16.063 1.777l-21.419-37.485c-1.793-3.572-4.464-5.797-8.035-6.697-3.572-0.894-6.992-0.441-10.267 1.333l-23.653 13.834c-2.974 2.079-4.982 4.911-6.024 8.481-1.048 3.572-0.672 7.143 1.123 10.714l20.968 37.037c-7.745 8.629-13.39 18.144-16.958 28.566h-48.202c-3.87 0-7.216 1.333-10.038 4.021-2.831 2.678-4.245 6.103-4.245 10.267v28.566c0 3.863 1.41 7.21 4.245 10.038 2.826 2.825 6.177 4.241 10.038 4.241h48.202c3.571 10.113 9.222 19.482 16.958 28.116l-20.973 37.043c-1.793 3.571-2.165 7.143-1.123 10.714 1.047 3.571 3.048 6.398 6.024 8.475l23.653 13.842c3.265 1.777 6.697 2.227 10.267 1.333 3.572-0.894 6.247-2.979 8.035-6.253l21.419-37.942c5.951 1.191 11.298 1.778 16.063 1.778 4.753 0 10.113-0.599 16.063-1.778l21.419 37.942c1.777 3.265 4.464 5.357 8.035 6.253 3.572 0.891 6.983 0.441 10.267-1.333l23.653-13.842c2.971-2.086 4.975-4.906 6.024-8.475 1.047-3.571 0.671-7.143-1.118-10.714l-20.976-37.044c7.738-8.635 13.39-18.002 16.957-28.116h48.202c3.863 0 7.21-1.416 10.038-4.241 2.825-2.831 4.245-6.178 4.245-10.038v-28.566c0-4.166-1.416-7.582-4.245-10.267-2.825-2.68-6.166-4.021-10.036-4.021zM354.296 160.151c-5.504 5.647-12.272 8.474-20.303 8.474s-14.805-2.827-20.307-8.474c-5.505-5.651-8.26-12.421-8.26-20.307 0-7.882 2.746-14.577 8.26-20.080 5.504-5.504 12.276-8.255 20.307-8.255s14.798 2.746 20.303 8.255c5.504 5.504 8.26 12.202 8.26 20.081 0 7.882-2.757 14.654-8.26 20.307z" horiz-adv-x="503" />
<glyph unicode="&#xe014;" d="M162.793 64.267c2.394 13.97 8.957 27.341 19.709 38.166l189.099 189.921c13.97 14.042 32.347 21.017 50.69 20.963v0c16.904 0.24 33.203 7.735 43.775 21.838 13.786 18.403 14.053 42.954 2.67 62.481l-22.632-39.755c-11.909-9.577-30.168-8.626-41.252 2.404-7.447 7.439-10.251 17.759-8.397 27.364l23.337 40.712c-18.76 1.397-37.426-6.111-49.103-21.709-9.635-12.825-12.653-28.63-9.757-43.655-1.616-11.351-5.985-22.371-13.067-32.014l-204.155-205.024c-9.033-6.738-19.305-10.999-29.927-12.877-18.114 2.291-36.484-4.505-47.769-19.555-12.641-16.834-12.871-39.269-2.463-57.147l20.699 36.336c10.896 8.758 27.591 7.902 37.745-2.184 6.807-6.798 9.36-16.217 7.666-25.012l-21.343-37.262c17.178-1.271 34.237 5.608 44.934 19.883 7.999 10.642 11.023 23.538 9.534 36.115zM436.81 60.755l-22.459-23.731c-4.44-4.664-11.855-4.81-16.469-0.31l-266.512 260.039c-0.104 0.104-0.189 0.212-0.292 0.331-3.419 1.997-18.216 10.251-27.043 10.251-10.067-0.001-36.912-9.973-48.075-91.541l-2.6 0.31c0 0-39.242 109.356 52.419 177.723 0 0 34.458-5.138 47.361 29.525l21.108 23.127 36.496-34.555-20.778-22.528c0 0-15.538 7.88-33.844-14.123-16.072-19.295 0.076-40.611 4.297-45.561 0.31-0.229 0.605-0.457 0.881-0.727l274.935-251.768c4.771-4.361 5.033-11.757 0.571-16.454z" horiz-adv-x="519" />
<glyph unicode="&#xe015;" d="M164.571 219.428q0-7.428-5.429-12.857l-128-128q-5.428-5.428-12.857-5.428t-12.857 5.428-5.428 12.857v256q0 7.428 5.428 12.857t12.857 5.429 12.857-5.429l128-128q5.428-5.429 5.428-12.857z" horiz-adv-x="183" />
<glyph unicode="&#xe600;" d="M407.12 121.776c0 7.248-5.92 13.168-13.168 13.168h-1.792c-7.216 0-13.152-5.92-13.152-13.168l-0.096-16.32h27.904l0.304 16.32zM48 184.88v-151.088c0-36.224 31.2-65.872 69.408-65.872h285.392c38.128 0 69.408 29.664 69.408 65.872v151.088c0 36.192-31.28 65.872-69.408 65.872h-285.392c-38.208-0.016-69.408-29.68-69.408-65.872zM354.624 106.992c0 12.624 1.264 22.56 3.76 29.888 2.512 7.248 6.784 12.688 12.4 16.8 17.856 12.976 53.216 8.912 56.832-16.432 1.152-8 1.504-22.032 1.504-36.032v-19.216h-50.624v-32.64c0-6.64 5.408-12.064 12.064-12.064h4.352c6.624 0 12.080 5.424 12.080 12.064v12.4c0 1.12 0.016 2.144 0.064 2.992l22.128 0.176c10.080-60.336-74.56-70.256-74.56-0.112v42.176zM260.16 200.096l29.456 0.064-0.112-52.624c27.184 21.792 47.264 5.664 47.264-21.28l0.048-70.704c0.080-34.336-19.392-53.888-50.368-25.296l-2.208-11.312-24.272-0.336 0.192 181.488zM195.504 67.232c0-11.664-0.64-18.432 0.064-20.72 4.208-12.88 15.008-5.872 17.376 0.704 0.752 2.192 0.048 8.336 0.048 20.624v84.96h29.488v-135.312h-23.664v17.536c-6.336-13.728-31.776-24.848-45.056-15.216-7.12 5.168-6.848 14.192-7.552 21.904-0.4 4.352-0.096 13.984-0.096 26.912l-0.096 84.192h29.344l0.144-85.584zM171.808 176.512h-35.392v-159.136h-29.488v159.616l-29.424 0.096v23.168l94.304-0.16v-23.584zM312.304 424.688v-94.88c0-12.112 0.24-20.128 0.576-24.24 0.368-4.048 1.296-7.968 2.848-11.76 1.536-3.696 3.872-6.688 7.072-8.976 3.184-2.288 7.216-3.392 12.064-3.392 4.256 0 8.048 1.152 11.328 3.536 3.264 2.384 6 5.936 8.24 10.656l-0.528-11.664h32.864v140.72h-25.888v-109.472c0-5.936-4.848-10.8-10.752-10.8-5.936 0-10.8 4.864-10.8 10.8v109.472h-27.024zM302 39.712c7.12 0 12.944 4.816 12.944 10.656v79.408c0 5.888-5.808 10.72-12.944 10.72-7.056 0-12.864-4.832-12.864-10.72v-79.408c0-5.84 5.808-10.656 12.864-10.656zM285.984 414.208c-2.928 4.704-7.136 8.56-12.608 11.504s-11.968 4.464-19.568 4.464c-9.072 0-16.464-2.336-22.304-6.96-5.84-4.56-9.84-10.688-12.112-18.24-2.224-7.616-3.344-18.144-3.344-31.632v-37.312c0-12.32 0.608-21.6 1.872-27.728 1.216-6.128 3.248-11.456 6.16-15.776 2.864-4.352 6.928-7.6 12.112-9.776 5.232-2.176 11.536-3.2 19.024-3.2 6.688 0 12.624 1.216 17.84 3.792 5.12 2.48 9.36 6.448 12.656 11.664 3.312 5.328 5.472 11.008 6.464 17.088 1.008 6.144 1.568 15.712 1.568 28.784v35.616c0 10.288-0.56 17.936-1.664 23.008-1.088 5.024-3.12 9.92-6.096 14.704zM267.952 317.44c0-7.968-5.872-14.496-13.040-14.496s-13.056 6.528-13.056 14.496v74.864c0 7.968 5.888 14.496 13.056 14.496s13.040-6.544 13.040-14.496v-74.864zM150.816 279.584h31.040l0.032 107.952 36.672 92.4h-33.936l-19.52-68.624-19.744 68.832h-33.568l38.96-92.656z" />
<glyph unicode="&#xe601;" d="M116.416 135.184c0-23.312 51.92-61.056 77.072-61.056 25.488 0 44.64 17.28 44.64 28.496v88.224l5.936-3.12c4.816-2.496 9.856-4.4 15.232-5.68 0.544-0.064 1.104-0.096 1.664-0.16 0.528-0.096 1.024-0.128 1.568-0.192v-0.288c4.656-0.944 9.52-1.472 14.528-1.472 35.968 0 72.256 24.016 82.32 45.568 6.912 14.768 4.816 18.16 4.752 18.192h-0.192c-4.432 0-12.912-4.080-25.936-15.328-8.752-7.488-19.184-11.296-31.248-11.296-22 0-44.016 13.088-53.488 21.968-13.616 12.72-25.28 20.048-44.608 20.048-1.008 0-2.048 0-3.104-0.096-2.416-0.096-5.232-0.096-8.24-0.096-28.736 0-77.264 4.144-105.632 10.832-15.856 3.76-36.528 16.096-54.736 27.008-13.808 8.304-28.064 16.864-33.36 17.008-2.848-8.384 1.712-14.576 16.112-32.080l4.48-5.424c16.304-20.064 88.896-48.688 89.664-49.008l2.576-0.976v-91.072zM237.28 349.328c0 29.136-23.68 52.976-52.736 52.976-29.104 0-52.784-23.824-52.784-52.976 0-29.248 23.664-53.040 52.784-53.040 29.040 0 52.736 23.792 52.736 53.040zM501.776 288.96c7.68 14.768 8.368 23.2 6.656 26.016-0.224 0.416-0.624 0.912-1.84 0.912-2.752 0-8.224-2.528-14.368-9.488-18.16-20.192-92.656-44.832-103.872-44.832h-81.184c-22.128 0-44.624-6.144-44.624-12.256v-12.416c10.592-7.584 27.36-15.728 44.208-15.728 10 0 19.936 2.832 28.56 10.288 12.496 10.688 22.368 16.4 28.064 16.4 6.496 0 7.312-7.632-0.32-24.048-0.944-2.016-2.128-3.968-3.408-5.952 9.68 2.848 12.288-4.256 3.408-23.376-12.32-26.32-58.688-54.16-100.528-46.368v-45.472c0-11.088 16.8-41.712 70.864-41.712 53.744 0 67.12 65.024 67.12 74.288v83.984l2.192 1.152c8.656 4.56 17.536 8.752 26.096 12.752 31.232 14.768 58.256 27.456 72.976 55.856zM281.504 349.328c0-29.248 23.664-53.040 52.72-53.040 29.152 0 52.784 23.792 52.784 53.040 0 29.136-23.632 52.976-52.784 52.976-29.072 0-52.72-23.84-52.72-52.976z" />
<glyph unicode="&#xe602;" d="M431.824 400.4c0 0-125.216 2.784-175.184 2.784h-1.28c-49.968 0-175.168-2.784-175.168-2.784-41.856-2.944-69.6-32.288-74.96-74.928 0 0-5.584-55.12-5.584-100.112 0-44.96 5.584-100.064 5.584-100.064 4.336-42.88 30.368-72.032 74.96-74.976 0 0 102.016-5.52 175.168-5.52h1.28c73.152 0 175.184 5.52 175.184 5.52 44.56 2.944 70.56 32.096 74.976 74.976 0 0 5.552 55.104 5.552 100.064 0 44.992-5.552 100.112-5.552 100.112-5.36 42.64-33.136 71.984-74.976 74.928zM324.016 216.112l-119.76-62.784v143.088l8.336-4.336 128.144-67.2-16.72-8.768z" />
<glyph unicode="&#xe603;" d="M229.904-23.616c17.856-10.688 33.264-10.176 49.6-0.992 25.664 14.576 102.672 91.584 145.376 181.744 17.904 0.064 39.456 2.144 60.88 6.944v60.72c-13.12-3.008-25.856-4.368-37.248-4.368-64.336 0-113.888 44.96-113.888 123.088 0 38.288 14.8 58.224 35.76 58.224 19.872 0 33.184-17.904 33.184-54.144 0-20.624-5.568-43.216-9.616-56.592 0 0 19.84-34.544 74.016-23.984 11.552 25.6 17.776 58.688 17.776 87.696 0 78.144-39.824 123.584-112.816 123.584-75.088 0-119.008-57.696-119.008-133.76 0-75.408 35.232-140.080 93.344-169.536-24.448-48.88-55.552-91.984-87.936-124.352-58.848 71.104-112 165.952-133.792 351.104h-86.816c40.096-308.336 159.568-406.528 191.184-425.376z" />
<glyph unicode="&#xe604;" d="M405.76 136.096c66 84.672 99.984 151.344 102.32 200.080 3.056 65.184-21.36 98.544-73.056 100.016-69.744 2.256-116.912-36.72-141.616-116.864 12.72 5.216 25.12 7.872 37.12 7.872 25.408 0 36.688-14.224 33.696-42.768-1.52-17.2-12.768-42.288-33.696-75.28-21.040-33.008-36.736-49.488-47.152-49.488-13.584 0-25.92 25.504-37.184 76.464-3.792 14.976-10.496 53.184-20.16 114.656-9.088 56.944-33.072 83.52-72.016 79.776-16.448-1.488-41.184-16.48-74.080-44.976-24.080-21.728-48.4-43.424-73.152-65.216l23.568-30.32c22.512 15.776 35.728 23.568 39.312 23.568 17.28 0 33.424-26.96 48.448-80.816 13.392-49.552 26.912-99.008 40.464-148.416 20.144-53.888 44.96-80.944 74.128-80.944 47.152 0.016 104.96 44.224 173.056 132.656z" />
<glyph unicode="&#xe605;" d="M59.36 474.976c-29.024 0-52.576-23.584-52.576-52.608v-396.784c0-29.056 23.552-52.608 52.576-52.608h396.832c29.040 0 52.608 23.552 52.608 52.608v396.784c0 29.024-23.568 52.608-52.608 52.608h-396.832zM258.032 323.104c54.352 0 98.368-44.016 98.368-98.352 0-54.32-44.016-98.368-98.368-98.368-54.32 0-98.336 44.064-98.336 98.368 0.016 54.336 44.016 98.352 98.336 98.352zM451.392 49.136c0-12.512-8.88-17.696-22.448-17.696h-343.344c-13.568 0-22.448 5.184-22.448 17.696s0 214.496 0 214.496h42.224c-2.896-11.936-4.48-24.352-4.48-37.184 0-86.512 70.128-156.672 156.672-156.672 86.528 0 156.656 70.176 156.656 156.672 0 12.816-1.584 25.248-4.464 37.184h41.664c-0.032 0.016-0.032-201.968-0.032-214.496zM451.92 338.176c0-9.952-8.096-18.016-18.048-18.016h-62.736c-9.952 0-18.048 8.064-18.048 18.016v62.736c0 10 8.096 18.048 18.048 18.048h62.736c9.952 0 18.048-8.048 18.048-18.048v-62.736z" />
<glyph unicode="&#xe606;" d="M0 80h512v-64h-512zM64 208h64v-96h-64zM160 336h64v-224h-64zM256 240h64v-128h-64zM352 432h64v-320h-64z" />
<glyph unicode="&#xe607;" d="M256 464c-132.548 0-240-107.452-240-240s107.452-240 240-240c132.549 0 240 107.451 240 240s-107.451 240-240 240zM391.795 144c4.29 20.227 6.998 41.696 7.879 64h63.723c-1.668-22.098-6.812-43.557-15.34-64h-56.262zM120.205 304c-4.29-20.227-6.998-41.696-7.879-64h-63.722c1.668 22.097 6.811 43.557 15.339 64h56.262zM359.018 304c4.807-20.481 7.699-41.927 8.64-64h-95.658v64h87.018zM272 336v93.669c7.295-2.123 14.522-5.685 21.614-10.685 13.291-9.37 26.006-23.804 36.77-41.743 7.441-12.401 13.876-26.208 19.248-41.242h-77.632zM181.616 377.242c10.764 17.939 23.478 32.374 36.77 41.743 7.091 5 14.319 8.562 21.614 10.685v-93.67h-77.632c5.373 15.033 11.808 28.84 19.248 41.242zM240 304v-64h-95.657c0.94 22.073 3.833 43.519 8.639 64h87.018zM63.944 144c-8.528 20.443-13.671 41.902-15.339 64h63.722c0.881-22.304 3.589-43.773 7.879-64h-56.262zM144.343 208h95.657v-64h-87.018c-4.806 20.48-7.699 41.927-8.639 64zM240 112v-93.67c-7.294 2.123-14.522 5.686-21.614 10.685-13.292 9.37-26.007 23.805-36.77 41.743-7.441 12.402-13.875 26.209-19.249 41.242h77.633zM330.384 70.758c-10.764-17.938-23.479-32.373-36.77-41.743-7.092-4.999-14.319-8.562-21.614-10.685v93.67h77.633c-5.373-15.033-11.808-28.84-19.249-41.242zM272 144v64h95.657c-0.94-22.073-3.833-43.52-8.64-64h-87.017zM399.674 240c-0.881 22.304-3.589 43.773-7.879 64h56.262c8.528-20.443 13.672-41.903 15.34-64h-63.723zM431.329 336h-47.95c-9.319 29.381-22.188 55.147-37.658 75.714 21.268-10.17 40.529-23.808 57.357-40.636 10.74-10.739 20.181-22.469 28.251-35.078zM108.922 371.078c16.829 16.829 36.090 30.466 57.357 40.636-15.471-20.567-28.338-46.333-37.658-75.714h-47.949c8.069 12.609 17.511 24.339 28.25 35.078zM80.672 112h47.949c9.32-29.381 22.188-55.147 37.659-75.715-21.268 10.17-40.529 23.808-57.357 40.637-10.74 10.739-20.182 22.469-28.251 35.078zM403.078 76.922c-16.828-16.829-36.090-30.467-57.357-40.637 15.471 20.567 28.339 46.334 37.658 75.715h47.95c-8.070-12.609-17.511-24.339-28.251-35.078z" />
<glyph unicode="&#xe608;" d="M256 454.4c-126.976 0-230.4-103.424-230.4-230.4s103.424-230.4 230.4-230.4c126.976 0 230.4 103.424 230.4 230.4s-103.424 230.4-230.4 230.4zM256 48.896c-97.28 0-175.104 78.336-175.104 175.104 0 97.28 78.336 175.104 175.104 175.104 97.28 0 175.104-78.336 175.104-175.104 0-97.28-77.824-175.104-175.104-175.104zM185.856 256.256l61.952-57.344c3.072-2.048 6.144-3.072 9.216-3.072s7.168 2.048 9.216 4.096l92.16 110.080c4.096 5.12 4.096 12.8-2.048 17.92-5.12 4.096-12.8 4.096-17.92-2.048l-82.944-100.352-52.224 48.128c-5.12 5.12-12.8 4.096-17.92-1.024-5.632-3.584-4.608-11.776 0.512-16.384v0zM244.224 382.208h23.040v-37.888h-23.040v37.888zM244.224 103.68h23.040v-37.888h-23.040v37.888zM95.744 235.776h37.888v-23.040h-37.888v23.040zM377.344 235.776h37.888v-23.040h-37.888v23.040z" />
</font>
</defs>
</svg>
